{"accessors":[{"bufferView":0,"byteOffset":0,"componentType":5126,"count":24,"max":[1,5,1],"min":[-1,0,-1],"normalized":false,"type":"VEC3"},{"bufferView":1,"byteOffset":0,"componentType":5126,"count":24,"max":[1,0,-0.000015,1],"min":[0.999981,0,-0.006125,1],"normalized":false,"type":"VEC4"},{"bufferView":2,"byteOffset":0,"componentType":5126,"count":24,"max":[0,1,1],"min":[-0.000022,-1,-0.000015],"normalized":false,"type":"VEC3"},{"bufferView":3,"byteOffset":0,"componentType":5126,"count":24,"max":[1,0.5031],"min":[0,0],"normalized":false,"type":"VEC2"},{"bufferView":4,"byteOffset":0,"componentType":5125,"count":36,"max":[23],"min":[0],"normalized":false,"type":"SCALAR"},{"bufferView":5,"byteOffset":0,"componentType":5126,"count":34,"max":[1,5,1],"min":[-1,0,-1],"normalized":false,"type":"VEC3"},{"bufferView":6,"byteOffset":0,"componentType":5126,"count":34,"max":[1,0,1,1],"min":[-0.000015,-0.000015,-0.707096,1],"normalized":false,"type":"VEC4"},{"bufferView":7,"byteOffset":0,"componentType":5126,"count":34,"max":[0,1,1],"min":[-1,-1,-0.000065],"normalized":false,"type":"VEC3"},{"bufferView":8,"byteOffset":0,"componentType":5126,"count":34,"max":[1,0.5031],"min":[0,0],"normalized":false,"type":"VEC2"},{"bufferView":9,"byteOffset":0,"componentType":5125,"count":48,"max":[33],"min":[0],"normalized":false,"type":"SCALAR"},{"bufferView":10,"byteOffset":0,"componentType":5126,"count":12,"max":[1,5,1],"min":[-1,0,-1],"normalized":false,"type":"VEC3"},{"bufferView":11,"byteOffset":0,"componentType":5126,"count":12,"max":[1,0,-0.000015,1],"min":[0.999981,0,-0.006125,1],"normalized":false,"type":"VEC4"},{"bufferView":12,"byteOffset":0,"componentType":5126,"count":12,"max":[0,1,-0.000015],"min":[0,-1,-0.000015],"normalized":false,"type":"VEC3"},{"bufferView":13,"byteOffset":0,"componentType":5126,"count":12,"max":[1,0.5031],"min":[0,0],"normalized":false,"type":"VEC2"},{"bufferView":14,"byteOffset":0,"componentType":5125,"count":18,"max":[11],"min":[0],"normalized":false,"type":"SCALAR"},{"bufferView":15,"byteOffset":0,"componentType":5126,"count":16,"max":[1,5,1],"min":[-1,0,-1],"normalized":false,"type":"VEC3"},{"bufferView":16,"byteOffset":0,"componentType":5126,"count":16,"max":[1,0,-0.000015,1],"min":[0.707085,-0.707128,-0.006125,1],"normalized":false,"type":"VEC4"},{"bufferView":17,"byteOffset":0,"componentType":5126,"count":16,"max":[0,1,0.577245],"min":[-0.577403,-1,-0.000015],"normalized":false,"type":"VEC3"},{"bufferView":18,"byteOffset":0,"componentType":5126,"count":16,"max":[1,0.5031],"min":[0,0],"normalized":false,"type":"VEC2"},{"bufferView":19,"byteOffset":0,"componentType":5125,"count":24,"max":[15],"min":[0],"normalized":false,"type":"SCALAR"}],"asset":{"generator":"Godot Engine v4.1.1.stable.mono.official@bd6af8e0ea69167dd0627f3bd54f9105bda0f8b5","version":"2.0"},"bufferViews":[{"buffer":0,"byteLength":288,"byteOffset":0},{"buffer":0,"byteLength":384,"byteOffset":288},{"buffer":0,"byteLength":288,"byteOffset":672},{"buffer":0,"byteLength":192,"byteOffset":960},{"buffer":0,"byteLength":144,"byteOffset":1152},{"buffer":0,"byteLength":408,"byteOffset":1296},{"buffer":0,"byteLength":544,"byteOffset":1704},{"buffer":0,"byteLength":408,"byteOffset":2248},{"buffer":0,"byteLength":272,"byteOffset":2656},{"buffer":0,"byteLength":192,"byteOffset":2928},{"buffer":0,"byteLength":144,"byteOffset":3120},{"buffer":0,"byteLength":192,"byteOffset":3264},{"buffer":0,"byteLength":144,"byteOffset":3456},{"buffer":0,"byteLength":96,"byteOffset":3600},{"buffer":0,"byteLength":72,"byteOffset":3696},{"buffer":0,"byteLength":192,"byteOffset":3768},{"buffer":0,"byteLength":256,"byteOffset":3960},{"buffer":0,"byteLength":192,"byteOffset":4216},{"buffer":0,"byteLength":128,"byteOffset":4408},{"buffer":0,"byteLength":96,"byteOffset":4536}],"buffers":[{"byteLength":4632,"uri":"tileset0.bin"}],"extensions":{"OMI_collider":{"colliders":[{"mesh":0,"type":"trimesh"},{"mesh":1,"type":"trimesh"},{"mesh":2,"type":"trimesh"},{"mesh":3,"type":"trimesh"}]}},"extensionsUsed":["OMI_collider","OMI_physics_body"],"images":[{"uri":"textures%2FMaterial_001_albedo.png"},{"uri":"textures%2FMaterial_001_normal.png"}],"materials":[{"doubleSided":true,"extensions":{},"name":"Material_001","normalTexture":{"index":1,"scale":1},"pbrMetallicRoughness":{"baseColorFactor":[0.99999988079071,0.99999988079071,0.99999988079071,1],"baseColorTexture":{"index":0},"metallicFactor":0,"roughnessFactor":1}}],"meshes":[{"extras":{"targetNames":[]},"primitives":[{"attributes":{"NORMAL":2,"POSITION":0,"TANGENT":1,"TEXCOORD_0":3},"indices":4,"material":0,"mode":4}]},{"extras":{"targetNames":[]},"primitives":[{"attributes":{"NORMAL":7,"POSITION":5,"TANGENT":6,"TEXCOORD_0":8},"indices":9,"material":0,"mode":4}]},{"extras":{"targetNames":[]},"primitives":[{"attributes":{"NORMAL":12,"POSITION":10,"TANGENT":11,"TEXCOORD_0":13},"indices":14,"material":0,"mode":4}]},{"extras":{"targetNames":[]},"primitives":[{"attributes":{"NORMAL":17,"POSITION":15,"TANGENT":16,"TEXCOORD_0":18},"indices":19,"material":0,"mode":4}]}],"nodes":[{"children":[1,4,7,10],"extensions":{},"name":"untitled"},{"children":[2],"extensions":{},"mesh":0,"name":"wall","scale":[0.5,0.5,0.5]},{"children":[3],"extensions":{"OMI_physics_body":{"type":"static"}},"name":"StaticBody3D"},{"extensions":{"OMI_collider":{"collider":0}},"name":"CollisionShape3D"},{"children":[5],"extensions":{},"mesh":1,"name":"corner","scale":[0.5,0.5,0.5],"translation":[4.07922601699829,0,0]},{"children":[6],"extensions":{"OMI_physics_body":{"type":"static"}},"name":"StaticBody3D2"},{"extensions":{"OMI_collider":{"collider":1}},"name":"CollisionShape3D2"},{"children":[8],"extensions":{},"mesh":2,"name":"floor","scale":[0.5,0.5,0.5],"translation":[2,0,0]},{"children":[9],"extensions":{"OMI_physics_body":{"type":"static"}},"name":"StaticBody3D3"},{"extensions":{"OMI_collider":{"collider":2}},"name":"CollisionShape3D3"},{"children":[11],"extensions":{},"mesh":3,"name":"corner-out","scale":[0.5,0.5,0.5],"translation":[-2,0,0]},{"children":[12],"extensions":{"OMI_physics_body":{"type":"static"}},"name":"StaticBody3D4"},{"extensions":{"OMI_collider":{"collider":3}},"name":"CollisionShape3D4"}],"samplers":[{"magFilter":9728,"minFilter":9986,"wrapS":10497,"wrapT":10497}],"scene":0,"scenes":[{"nodes":[0]}],"textures":[{"sampler":0,"source":0},{"sampler":0,"source":1}]}